<svg xmlns="http://www.w3.org/2000/svg" direction="ltr" width="979" height="904" viewBox="-32 -32 979 904" stroke-linecap="round" stroke-linejoin="round" style="background-color: rgb(249, 250, 251);" encoding="UTF-8&quot;"><defs/><g transform="matrix(1, 0, 0, 1, 0, 0)" opacity="1"><g><rect width="120" height="120" rx="4" fill="white" stroke="black" stroke-width="2"/><text x="5" y="28" style="font-family: sans-serif; font-size: 10px; fill: #504758;" dominant-baseline="middle">Compute Network</text><clipPath id="clip-round-corners-y6faosrpu"><rect x="0" y="0" width="64" height="64" rx="4" ry="4"/></clipPath><svg xmlns="http://www.w3.org/2000/svg" width="58" height="58" viewBox="0 0 24 24" x="31" y="48" clip-path="url(#clip-round-corners-y6faosrpu)"><defs><style>.cls-1{fill:#aecbfa;}.cls-2{fill:#669df6;}.cls-3{fill:#4285f4;}</style></defs><title>Icon_24px_ComputeEngine_Color</title><g data-name="Product Icons"><rect class="cls-1" x="9" y="9" width="6" height="6"/><rect class="cls-2" x="11" y="2" width="2" height="4"/><rect class="cls-2" x="7" y="2" width="2" height="4"/><rect class="cls-2" x="15" y="2" width="2" height="4"/><rect class="cls-3" x="11" y="18" width="2" height="4"/><rect class="cls-3" x="7" y="18" width="2" height="4"/><rect class="cls-3" x="15" y="18" width="2" height="4"/><rect class="cls-3" x="19" y="10" width="2" height="4" transform="translate(8 32) rotate(-90)"/><rect class="cls-3" x="19" y="14" width="2" height="4" transform="translate(4 36) rotate(-90)"/><rect class="cls-3" x="19" y="6" width="2" height="4" transform="translate(12 28) rotate(-90)"/><rect class="cls-2" x="3" y="10" width="2" height="4" transform="translate(-8 16) rotate(-90)"/><rect class="cls-2" x="3" y="14" width="2" height="4" transform="translate(-12 20) rotate(-90)"/><rect class="cls-2" x="3" y="6" width="2" height="4" transform="translate(-4 12) rotate(-90)"/><path class="cls-1" d="M5,5V19H19V5ZM17,17H7V7H17Z"/><polygon class="cls-2" points="9 15 15 15 12 12 9 15"/><polygon class="cls-3" points="12 12 15 15 15 9 12 12"/></g></svg><text x="5" y="14" style="font-family: sans-serif; font-size: 14px; fill: black;" dominant-baseline="middle">vpc</text></g></g><g transform="matrix(1, 0, 0, 1, 0, 240)" opacity="1"><g><rect width="120" height="120" rx="4" fill="white" stroke="black" stroke-width="2"/><text x="5" y="28" style="font-family: sans-serif; font-size: 10px; fill: #504758;" dominant-baseline="middle">Compute Subnetwork</text><clipPath id="clip-round-corners-icdc8x0gk"><rect x="0" y="0" width="64" height="64" rx="4" ry="4"/></clipPath><svg xmlns="http://www.w3.org/2000/svg" width="58" height="58" viewBox="0 0 24 24" x="31" y="48" clip-path="url(#clip-round-corners-icdc8x0gk)"><defs><style>.cls-1{fill:#aecbfa;}.cls-2{fill:#669df6;}.cls-3{fill:#4285f4;}</style></defs><title>Icon_24px_ComputeEngine_Color</title><g data-name="Product Icons"><rect class="cls-1" x="9" y="9" width="6" height="6"/><rect class="cls-2" x="11" y="2" width="2" height="4"/><rect class="cls-2" x="7" y="2" width="2" height="4"/><rect class="cls-2" x="15" y="2" width="2" height="4"/><rect class="cls-3" x="11" y="18" width="2" height="4"/><rect class="cls-3" x="7" y="18" width="2" height="4"/><rect class="cls-3" x="15" y="18" width="2" height="4"/><rect class="cls-3" x="19" y="10" width="2" height="4" transform="translate(8 32) rotate(-90)"/><rect class="cls-3" x="19" y="14" width="2" height="4" transform="translate(4 36) rotate(-90)"/><rect class="cls-3" x="19" y="6" width="2" height="4" transform="translate(12 28) rotate(-90)"/><rect class="cls-2" x="3" y="10" width="2" height="4" transform="translate(-8 16) rotate(-90)"/><rect class="cls-2" x="3" y="14" width="2" height="4" transform="translate(-12 20) rotate(-90)"/><rect class="cls-2" x="3" y="6" width="2" height="4" transform="translate(-4 12) rotate(-90)"/><path class="cls-1" d="M5,5V19H19V5ZM17,17H7V7H17Z"/><polygon class="cls-2" points="9 15 15 15 12 12 9 15"/><polygon class="cls-3" points="12 12 15 15 15 9 12 12"/></g></svg><text x="5" y="14" style="font-family: sans-serif; font-size: 14px; fill: black;" dominant-baseline="middle">subnet</text></g></g><g transform="matrix(1, 0, 0, 1, 0, 0)" opacity="1"><g><defs><mask id="shape_google_compute_network.vpc-google_compute_subnetwork.subnet:1728003913835_clip"><rect x="-40" y="20" width="200" height="309" fill="white"/><path d="M 63 223.80384757729337 L 60 229 L 57 223.80384757729337" fill="none" stroke="none"/></mask></defs><g mask="url(#shape_google_compute_network.vpc-google_compute_subnetwork.subnet:1728003913835_clip)"><rect x="-100" y="-100" width="200" height="309" fill="transparent" stroke="none"/><path d="M60,120L60,229" fill="none" stroke="#1d1d1d" stroke-width="2" stroke-dasharray="none" stroke-dashoffset="none"/></g><path d="M 63 223.80384757729337 L 60 229 L 57 223.80384757729337" fill="none" stroke="#1d1d1d" stroke-width="2"/></g></g><g transform="matrix(1, 0, 0, 1, 0, 480)" opacity="1"><g><rect width="120" height="120" rx="4" fill="white" stroke="black" stroke-width="2"/><text x="5" y="28" style="font-family: sans-serif; font-size: 10px; fill: #504758;" dominant-baseline="middle">Container Cluster</text><clipPath id="clip-round-corners-90u528tr7"><rect x="0" y="0" width="64" height="64" rx="4" ry="4"/></clipPath><svg xmlns="http://www.w3.org/2000/svg" width="58" height="58" viewBox="0 0 24 24" x="31" y="48" clip-path="url(#clip-round-corners-90u528tr7)"><defs><style>.cls-1{fill:#4285f4;}.cls-1,.cls-2,.cls-4{fill-rule:evenodd;}.cls-2{fill:#669df6;}.cls-3,.cls-4{fill:#aecbfa;}</style></defs><title>Icon_24px_K8Engine_Color</title><g data-name="Product Icons"><g><polygon class="cls-1" points="14.68 13.06 19.23 15.69 19.23 16.68 14.29 13.83 14.68 13.06"/><polygon class="cls-2" points="9.98 13.65 4.77 16.66 4.45 15.86 9.53 12.92 9.98 13.65"/><rect class="cls-3" x="11.55" y="3.29" width="0.86" height="5.78"/><path class="cls-4" d="M3.25,7V17L12,22l8.74-5V7L12,2Zm15.63,8.89L12,19.78,5.12,15.89V8.11L12,4.22l6.87,3.89v7.78Z"/><polygon class="cls-4" points="11.98 11.5 15.96 9.21 11.98 6.91 8.01 9.21 11.98 11.5"/><polygon class="cls-2" points="11.52 12.3 7.66 10.01 7.66 14.6 11.52 16.89 11.52 12.3"/><polygon class="cls-1" points="12.48 12.3 12.48 16.89 16.34 14.6 16.34 10.01 12.48 12.3"/></g></g></svg><text x="5" y="14" style="font-family: sans-serif; font-size: 14px; fill: black;" dominant-baseline="middle">primary</text></g></g><g transform="matrix(1, 0, 0, 1, 0, 0)" opacity="1"><g><defs><mask id="shape_google_compute_subnetwork.subnet-google_container_cluster.primary:1728003913835_clip"><rect x="-40" y="260" width="200" height="309" fill="white"/><path d="M 63 463.80384757729337 L 60 469 L 57 463.80384757729337" fill="none" stroke="none"/></mask></defs><g mask="url(#shape_google_compute_subnetwork.subnet-google_container_cluster.primary:1728003913835_clip)"><rect x="-100" y="-100" width="200" height="309" fill="transparent" stroke="none"/><path d="M60,360L60,469" fill="none" stroke="#1d1d1d" stroke-width="2" stroke-dasharray="none" stroke-dashoffset="none"/></g><path d="M 63 463.80384757729337 L 60 469 L 57 463.80384757729337" fill="none" stroke="#1d1d1d" stroke-width="2"/></g></g><g transform="matrix(1, 0, 0, 1, 85, 720)" opacity="1"><g><rect width="120" height="120" rx="4" fill="white" stroke="black" stroke-width="2"/><text x="5" y="28" style="font-family: sans-serif; font-size: 10px; fill: #504758;" dominant-baseline="middle">Container Node Pool</text><clipPath id="clip-round-corners-wam8gncff"><rect x="0" y="0" width="64" height="64" rx="4" ry="4"/></clipPath><svg xmlns="http://www.w3.org/2000/svg" width="58" height="58" viewBox="0 0 24 24" x="31" y="48" clip-path="url(#clip-round-corners-wam8gncff)"><defs><style>.cls-1{fill:#4285f4;}.cls-1,.cls-2,.cls-4{fill-rule:evenodd;}.cls-2{fill:#669df6;}.cls-3,.cls-4{fill:#aecbfa;}</style></defs><title>Icon_24px_K8Engine_Color</title><g data-name="Product Icons"><g><polygon class="cls-1" points="14.68 13.06 19.23 15.69 19.23 16.68 14.29 13.83 14.68 13.06"/><polygon class="cls-2" points="9.98 13.65 4.77 16.66 4.45 15.86 9.53 12.92 9.98 13.65"/><rect class="cls-3" x="11.55" y="3.29" width="0.86" height="5.78"/><path class="cls-4" d="M3.25,7V17L12,22l8.74-5V7L12,2Zm15.63,8.89L12,19.78,5.12,15.89V8.11L12,4.22l6.87,3.89v7.78Z"/><polygon class="cls-4" points="11.98 11.5 15.96 9.21 11.98 6.91 8.01 9.21 11.98 11.5"/><polygon class="cls-2" points="11.52 12.3 7.66 10.01 7.66 14.6 11.52 16.89 11.52 12.3"/><polygon class="cls-1" points="12.48 12.3 12.48 16.89 16.34 14.6 16.34 10.01 12.48 12.3"/></g></g></svg><text x="5" y="14" style="font-family: sans-serif; font-size: 14px; fill: black;" dominant-baseline="middle">pool</text></g></g><g transform="matrix(1, 0, 0, 1, 0, 0)" opacity="1"><g><defs><mask id="shape_google_container_cluster.primary-google_container_node_pool.pool:1728003913835_clip"><rect x="-18.75" y="500" width="238.82768143530944" height="309.6311005232267" fill="white"/><path d="M 121.17084247380517 703.7315243567622 L 120.07768143530946 709.6311005232267 L 115.51507912283789 705.7346072102298" fill="none" stroke="none"/></mask></defs><g mask="url(#shape_google_container_cluster.primary-google_container_node_pool.pool:1728003913835_clip)"><rect x="-100" y="-100" width="238.82768143530944" height="309.6311005232267" fill="transparent" stroke="none"/><path d="M81.25,600L120.07768143530946,709.6311005232267" fill="none" stroke="#1d1d1d" stroke-width="2" stroke-dasharray="none" stroke-dashoffset="none"/></g><path d="M 121.17084247380517 703.7315243567622 L 120.07768143530946 709.6311005232267 L 115.51507912283789 705.7346072102298" fill="none" stroke="#1d1d1d" stroke-width="2"/></g></g><g transform="matrix(1, 0, 0, 1, 255, 0)" opacity="1"><g><rect width="120" height="120" rx="4" fill="white" stroke="black" stroke-width="2"/><text x="5" y="28" style="font-family: sans-serif; font-size: 10px; fill: #504758;" dominant-baseline="middle">Monitoring Alert Policy</text><clipPath id="clip-round-corners-zq7tddn7z"><rect x="0" y="0" width="64" height="64" rx="4" ry="4"/></clipPath><svg xmlns="http://www.w3.org/2000/svg" width="58" height="58" viewBox="0 0 24 24" x="31" y="48" clip-path="url(#clip-round-corners-zq7tddn7z)"><defs><style>.cls-1{fill:#669df6;}.cls-2{fill:#4285f4;}</style></defs><title>Icon_24px_Monitoring_Color</title><g data-name="Product Icons"><rect class="cls-1" x="10.83" y="15.84" width="2.33" height="2.64"/><path class="cls-2" d="M18.48,13.87a.56.56,0,0,1-.4-.17L14,9.47l-2.74,2.89a.57.57,0,0,1-.76.05L8.42,10.73l-2.2,2.92a.56.56,0,0,1-.45.22H2v1.71a.75.75,0,0,0,.74.75H21.26a.75.75,0,0,0,.74-.75V13.87Z"/><path class="cls-1" d="M5.5,12.76,7.88,9.6a.55.55,0,0,1,.37-.22.63.63,0,0,1,.42.12l2.12,1.72,2.8-2.94a.54.54,0,0,1,.4-.17h0a.54.54,0,0,1,.4.17l4.33,4.48H22V6a.74.74,0,0,0-.74-.74H2.74A.74.74,0,0,0,2,6v6.81Z"/><rect class="cls-2" x="8.67" y="18.18" width="6.67" height="0.61" rx="0.3"/></g></svg><text x="5" y="14" style="font-family: sans-serif; font-size: 14px; fill: black;" dominant-baseline="middle">container_re...</text></g></g><g transform="matrix(1, 0, 0, 1, 0, 0)" opacity="1"><g><defs><mask id="shape_google_monitoring_alert_policy.container_restarts-google_monitoring_alert_policy.container_restarts:1728003913835_clip"><rect x="215" y="-40" width="200" height="200" fill="white"/><path d="M NaN NaN L 315 60 L NaN NaN" fill="none" stroke="none"/></mask></defs><g mask="url(#shape_google_monitoring_alert_policy.container_restarts-google_monitoring_alert_policy.container_restarts:1728003913835_clip)"><rect x="-100" y="-100" width="200" height="200" fill="transparent" stroke="none"/><path d="M315,60L315,60" fill="none" stroke="#1d1d1d" stroke-width="2" stroke-dasharray="none" stroke-dashoffset="none"/></g><path d="M NaN NaN L 315 60 L NaN NaN" fill="none" stroke="#1d1d1d" stroke-width="2"/></g></g><g transform="matrix(1, 0, 0, 1, 170, 240)" opacity="1"><g><rect width="120" height="120" rx="4" fill="white" stroke="black" stroke-width="2"/><text x="5" y="28" style="font-family: sans-serif; font-size: 10px; fill: #504758;" dominant-baseline="middle">Monitoring Alert Policy</text><clipPath id="clip-round-corners-q2hu5hxjd"><rect x="0" y="0" width="64" height="64" rx="4" ry="4"/></clipPath><svg xmlns="http://www.w3.org/2000/svg" width="58" height="58" viewBox="0 0 24 24" x="31" y="48" clip-path="url(#clip-round-corners-q2hu5hxjd)"><defs><style>.cls-1{fill:#669df6;}.cls-2{fill:#4285f4;}</style></defs><title>Icon_24px_Monitoring_Color</title><g data-name="Product Icons"><rect class="cls-1" x="10.83" y="15.84" width="2.33" height="2.64"/><path class="cls-2" d="M18.48,13.87a.56.56,0,0,1-.4-.17L14,9.47l-2.74,2.89a.57.57,0,0,1-.76.05L8.42,10.73l-2.2,2.92a.56.56,0,0,1-.45.22H2v1.71a.75.75,0,0,0,.74.75H21.26a.75.75,0,0,0,.74-.75V13.87Z"/><path class="cls-1" d="M5.5,12.76,7.88,9.6a.55.55,0,0,1,.37-.22.63.63,0,0,1,.42.12l2.12,1.72,2.8-2.94a.54.54,0,0,1,.4-.17h0a.54.54,0,0,1,.4.17l4.33,4.48H22V6a.74.74,0,0,0-.74-.74H2.74A.74.74,0,0,0,2,6v6.81Z"/><rect class="cls-2" x="8.67" y="18.18" width="6.67" height="0.61" rx="0.3"/></g></svg><text x="5" y="14" style="font-family: sans-serif; font-size: 14px; fill: black;" dominant-baseline="middle">high_cpu_lim...</text></g></g><g transform="matrix(1, 0, 0, 1, 0, 0)" opacity="1"><g><defs><mask id="shape_google_monitoring_alert_policy.container_restarts-google_monitoring_alert_policy.high_cpu_limit_utilization:1728003913835_clip"><rect x="154.92231856469053" y="20" width="238.82768143530947" height="309.6311005232267" fill="white"/><path d="M 259.4849208771621 225.73460721022985 L 254.92231856469053 229.6311005232267 L 253.82915752619485 223.73152435676226" fill="none" stroke="none"/></mask></defs><g mask="url(#shape_google_monitoring_alert_policy.container_restarts-google_monitoring_alert_policy.high_cpu_limit_utilization:1728003913835_clip)"><rect x="-100" y="-100" width="238.82768143530947" height="309.6311005232267" fill="transparent" stroke="none"/><path d="M293.75,120L254.92231856469053,229.6311005232267" fill="none" stroke="#1d1d1d" stroke-width="2" stroke-dasharray="none" stroke-dashoffset="none"/></g><path d="M 259.4849208771621 225.73460721022985 L 254.92231856469053 229.6311005232267 L 253.82915752619485 223.73152435676226" fill="none" stroke="#1d1d1d" stroke-width="2"/></g></g><g transform="matrix(1, 0, 0, 1, 340, 240)" opacity="1"><g><rect width="120" height="120" rx="4" fill="white" stroke="black" stroke-width="2"/><text x="5" y="28" style="font-family: sans-serif; font-size: 10px; fill: #504758;" dominant-baseline="middle">Monitoring Alert Policy</text><clipPath id="clip-round-corners-1nbrkvawi"><rect x="0" y="0" width="64" height="64" rx="4" ry="4"/></clipPath><svg xmlns="http://www.w3.org/2000/svg" width="58" height="58" viewBox="0 0 24 24" x="31" y="48" clip-path="url(#clip-round-corners-1nbrkvawi)"><defs><style>.cls-1{fill:#669df6;}.cls-2{fill:#4285f4;}</style></defs><title>Icon_24px_Monitoring_Color</title><g data-name="Product Icons"><rect class="cls-1" x="10.83" y="15.84" width="2.33" height="2.64"/><path class="cls-2" d="M18.48,13.87a.56.56,0,0,1-.4-.17L14,9.47l-2.74,2.89a.57.57,0,0,1-.76.05L8.42,10.73l-2.2,2.92a.56.56,0,0,1-.45.22H2v1.71a.75.75,0,0,0,.74.75H21.26a.75.75,0,0,0,.74-.75V13.87Z"/><path class="cls-1" d="M5.5,12.76,7.88,9.6a.55.55,0,0,1,.37-.22.63.63,0,0,1,.42.12l2.12,1.72,2.8-2.94a.54.54,0,0,1,.4-.17h0a.54.54,0,0,1,.4.17l4.33,4.48H22V6a.74.74,0,0,0-.74-.74H2.74A.74.74,0,0,0,2,6v6.81Z"/><rect class="cls-2" x="8.67" y="18.18" width="6.67" height="0.61" rx="0.3"/></g></svg><text x="5" y="14" style="font-family: sans-serif; font-size: 14px; fill: black;" dominant-baseline="middle">high_memor...</text></g></g><g transform="matrix(1, 0, 0, 1, 0, 0)" opacity="1"><g><defs><mask id="shape_google_monitoring_alert_policy.container_restarts-google_monitoring_alert_policy.high_memory_limit_utilization:1728003913835_clip"><rect x="236.25" y="20" width="238.82768143530944" height="309.6311005232267" fill="white"/><path d="M 376.1708424738051 223.7315243567623 L 375.07768143530944 229.6311005232267 L 370.5150791228379 225.73460721022985" fill="none" stroke="none"/></mask></defs><g mask="url(#shape_google_monitoring_alert_policy.container_restarts-google_monitoring_alert_policy.high_memory_limit_utilization:1728003913835_clip)"><rect x="-100" y="-100" width="238.82768143530944" height="309.6311005232267" fill="transparent" stroke="none"/><path d="M336.25,120L375.07768143530944,229.6311005232267" fill="none" stroke="#1d1d1d" stroke-width="2" stroke-dasharray="none" stroke-dashoffset="none"/></g><path d="M 376.1708424738051 223.7315243567623 L 375.07768143530944 229.6311005232267 L 370.5150791228379 225.73460721022985" fill="none" stroke="#1d1d1d" stroke-width="2"/></g></g><g transform="matrix(1, 0, 0, 1, 170, 480)" opacity="1"><g><rect width="120" height="120" rx="4" fill="white" stroke="black" stroke-width="2"/><text x="5" y="28" style="font-family: sans-serif; font-size: 10px; fill: #504758;" dominant-baseline="middle">Service Account</text><clipPath id="clip-round-corners-gfcqr4qiz"><rect x="0" y="0" width="64" height="64" rx="4" ry="4"/></clipPath><svg width="58" height="58" viewBox="0 0 24 24" version="1.1" xmlns="http://www.w3.org/2000/svg" xmlns:xlink="http://www.w3.org/1999/xlink" x="31" y="48" clip-path="url(#clip-round-corners-gfcqr4qiz)">
    <g stroke="none" stroke-width="1" fill="none" fill-rule="evenodd">
        <path d="M22,2 L22,22 L2,22 L2,2 L22,2 Z M12,6.61538462 C10.2131185,6.61538462 8.69051386,7.74688823 8.10959985,9.33248166 L8.10959985,9.33248166 L7.94899666,9.33277592 C5.93795979,9.33277592 4.30769231,10.9630434 4.30769231,12.9740803 C4.30769231,14.9851171 5.93795979,16.6153846 7.94899666,16.6153846 L7.94899666,16.6153846 L16.0510033,16.6153846 C18.0620402,16.6153846 19.6923077,14.9851171 19.6923077,12.9740803 C19.6923077,10.9630434 18.0620402,9.33277592 16.0510033,9.33277592 L16.0510033,9.33277592 L15.8904002,9.33248166 C15.3094861,7.74688823 13.7868815,6.61538462 12,6.61538462 Z" fill="#4285F4"/>
    </g>
</svg><text x="5" y="14" style="font-family: sans-serif; font-size: 14px; fill: black;" dominant-baseline="middle">terraform</text></g></g><g transform="matrix(1, 0, 0, 1, 0, 0)" opacity="1"><g><defs><mask id="shape_google_service_account.terraform-google_container_node_pool.pool:1728003913835_clip"><rect x="69.92231856469053" y="500" width="238.82768143530947" height="309.6311005232267" fill="white"/><path d="M 174.4849208771621 705.7346072102298 L 169.92231856469053 709.6311005232267 L 168.82915752619482 703.7315243567622" fill="none" stroke="none"/></mask></defs><g mask="url(#shape_google_service_account.terraform-google_container_node_pool.pool:1728003913835_clip)"><rect x="-100" y="-100" width="238.82768143530947" height="309.6311005232267" fill="transparent" stroke="none"/><path d="M208.75,600L169.92231856469053,709.6311005232267" fill="none" stroke="#1d1d1d" stroke-width="2" stroke-dasharray="none" stroke-dashoffset="none"/></g><path d="M 174.4849208771621 705.7346072102298 L 169.92231856469053 709.6311005232267 L 168.82915752619482 703.7315243567622" fill="none" stroke="#1d1d1d" stroke-width="2"/></g></g><g transform="matrix(1, 0, 0, 1, 455, 0)" opacity="1"><g><rect width="120" height="120" rx="4" fill="white" stroke="black" stroke-width="2"/><text x="5" y="28" style="font-family: sans-serif; font-size: 10px; fill: #504758;" dominant-baseline="middle">Project Service</text><clipPath id="clip-round-corners-u04ndzdkq"><rect x="0" y="0" width="64" height="64" rx="4" ry="4"/></clipPath><svg width="58" height="58" viewBox="0 0 24 24" version="1.1" xmlns="http://www.w3.org/2000/svg" xmlns:xlink="http://www.w3.org/1999/xlink" x="31" y="48" clip-path="url(#clip-round-corners-u04ndzdkq)">
    <g stroke="none" stroke-width="1" fill="none" fill-rule="evenodd">
        <path d="M22,2 L22,22 L2,22 L2,2 L22,2 Z M12,6.61538462 C10.2131185,6.61538462 8.69051386,7.74688823 8.10959985,9.33248166 L8.10959985,9.33248166 L7.94899666,9.33277592 C5.93795979,9.33277592 4.30769231,10.9630434 4.30769231,12.9740803 C4.30769231,14.9851171 5.93795979,16.6153846 7.94899666,16.6153846 L7.94899666,16.6153846 L16.0510033,16.6153846 C18.0620402,16.6153846 19.6923077,14.9851171 19.6923077,12.9740803 C19.6923077,10.9630434 18.0620402,9.33277592 16.0510033,9.33277592 L16.0510033,9.33277592 L15.8904002,9.33248166 C15.3094861,7.74688823 13.7868815,6.61538462 12,6.61538462 Z" fill="#4285F4"/>
    </g>
</svg><text x="5" y="14" style="font-family: sans-serif; font-size: 14px; fill: black;" dominant-baseline="middle">container_api</text></g></g><g transform="matrix(1, 0, 0, 1, 625, 0)" opacity="1"><g><rect width="120" height="120" rx="4" fill="white" stroke="black" stroke-width="2"/><text x="5" y="28" style="font-family: sans-serif; font-size: 10px; fill: #504758;" dominant-baseline="middle">Project Service</text><clipPath id="clip-round-corners-xn5cfjbrq"><rect x="0" y="0" width="64" height="64" rx="4" ry="4"/></clipPath><svg width="58" height="58" viewBox="0 0 24 24" version="1.1" xmlns="http://www.w3.org/2000/svg" xmlns:xlink="http://www.w3.org/1999/xlink" x="31" y="48" clip-path="url(#clip-round-corners-xn5cfjbrq)">
    <g stroke="none" stroke-width="1" fill="none" fill-rule="evenodd">
        <path d="M22,2 L22,22 L2,22 L2,2 L22,2 Z M12,6.61538462 C10.2131185,6.61538462 8.69051386,7.74688823 8.10959985,9.33248166 L8.10959985,9.33248166 L7.94899666,9.33277592 C5.93795979,9.33277592 4.30769231,10.9630434 4.30769231,12.9740803 C4.30769231,14.9851171 5.93795979,16.6153846 7.94899666,16.6153846 L7.94899666,16.6153846 L16.0510033,16.6153846 C18.0620402,16.6153846 19.6923077,14.9851171 19.6923077,12.9740803 C19.6923077,10.9630434 18.0620402,9.33277592 16.0510033,9.33277592 L16.0510033,9.33277592 L15.8904002,9.33248166 C15.3094861,7.74688823 13.7868815,6.61538462 12,6.61538462 Z" fill="#4285F4"/>
    </g>
</svg><text x="5" y="14" style="font-family: sans-serif; font-size: 14px; fill: black;" dominant-baseline="middle">logging_api</text></g></g><g transform="matrix(1, 0, 0, 1, 795, 0)" opacity="1"><g><rect width="120" height="120" rx="4" fill="white" stroke="black" stroke-width="2"/><text x="5" y="28" style="font-family: sans-serif; font-size: 10px; fill: #504758;" dominant-baseline="middle">Project Service</text><clipPath id="clip-round-corners-1ht2ouk5y"><rect x="0" y="0" width="64" height="64" rx="4" ry="4"/></clipPath><svg width="58" height="58" viewBox="0 0 24 24" version="1.1" xmlns="http://www.w3.org/2000/svg" xmlns:xlink="http://www.w3.org/1999/xlink" x="31" y="48" clip-path="url(#clip-round-corners-1ht2ouk5y)">
    <g stroke="none" stroke-width="1" fill="none" fill-rule="evenodd">
        <path d="M22,2 L22,22 L2,22 L2,2 L22,2 Z M12,6.61538462 C10.2131185,6.61538462 8.69051386,7.74688823 8.10959985,9.33248166 L8.10959985,9.33248166 L7.94899666,9.33277592 C5.93795979,9.33277592 4.30769231,10.9630434 4.30769231,12.9740803 C4.30769231,14.9851171 5.93795979,16.6153846 7.94899666,16.6153846 L7.94899666,16.6153846 L16.0510033,16.6153846 C18.0620402,16.6153846 19.6923077,14.9851171 19.6923077,12.9740803 C19.6923077,10.9630434 18.0620402,9.33277592 16.0510033,9.33277592 L16.0510033,9.33277592 L15.8904002,9.33248166 C15.3094861,7.74688823 13.7868815,6.61538462 12,6.61538462 Z" fill="#4285F4"/>
    </g>
</svg><text x="5" y="14" style="font-family: sans-serif; font-size: 14px; fill: black;" dominant-baseline="middle">monitoring_api</text></g></g></svg>